<?xml version="1.0" standalone="no"?>
<!DOCTYPE svg PUBLIC "-//W3C//DTD SVG 20010904//EN"
 "http://www.w3.org/TR/2001/REC-SVG-20010904/DTD/svg10.dtd">
<svg version="1.0" xmlns="http://www.w3.org/2000/svg"
 width="2200.000000pt" height="2200.000000pt" viewBox="0 0 2200.000000 2200.000000"
 preserveAspectRatio="xMidYMid meet">
<metadata>
Created by potrace 1.14, written by Peter Selinger 2001-2017
</metadata>
<g transform="translate(0.000000,2200.000000) scale(0.100000,-0.100000)"
fill="#000000" stroke="none">
<path d="M9758 19114 c-2 -1 -16 -5 -32 -8 -45 -8 -104 -53 -136 -103 -16 -25
-27 -49 -25 -54 3 -4 1 -10 -4 -13 -9 -6 -14 -160 -14 -421 0 -115 1 -124 28
-174 45 -82 76 -104 290 -201 78 -36 151 -69 304 -141 57 -27 105 -49 106 -49
2 0 45 -20 97 -44 93 -43 156 -72 266 -122 31 -15 108 -51 171 -80 62 -30 115
-54 116 -54 4 0 114 -51 285 -132 58 -28 110 -51 115 -53 18 -4 105 -46 105
-50 0 -4 -48 -28 -195 -95 -81 -37 -158 -73 -304 -141 -57 -27 -104 -49 -106
-49 -1 0 -56 -25 -121 -57 -66 -31 -123 -57 -129 -59 -5 -1 -62 -27 -125 -57
-63 -30 -140 -66 -170 -80 -30 -14 -89 -41 -130 -60 -41 -19 -106 -49 -145
-67 -125 -58 -239 -111 -293 -137 -64 -31 -137 -110 -154 -166 -15 -52 -12
-502 3 -562 15 -58 56 -113 108 -143 39 -23 57 -27 116 -26 39 0 80 3 93 7 27
7 186 79 251 114 24 13 48 23 52 23 4 0 32 14 61 31 29 17 54 30 56 29 2 -1
26 9 55 23 29 14 115 55 192 92 77 37 201 97 275 132 139 67 280 134 455 218
55 26 165 79 245 118 80 38 186 89 235 112 50 24 167 80 260 126 94 45 172 83
175 84 6 1 74 33 265 125 153 74 208 119 244 200 19 40 21 66 21 251 0 156 -4
218 -15 257 -22 74 -89 139 -195 190 -215 102 -499 239 -720 344 -74 36 -166
80 -205 99 -38 19 -72 34 -75 35 -3 0 -75 34 -160 76 -85 41 -204 99 -265 128
-60 29 -171 82 -245 117 -74 36 -180 87 -235 113 -55 26 -163 78 -240 115
-343 165 -432 206 -470 220 -38 13 -130 26 -137 19z"/>
<path d="M4958 14505 c-2 -1 -55 -5 -118 -9 -63 -3 -126 -8 -140 -10 -14 -3
-41 -7 -60 -10 -75 -12 -110 -20 -245 -59 -79 -22 -202 -74 -305 -128 -283
-149 -511 -353 -693 -619 -53 -78 -182 -320 -171 -320 4 0 1 -6 -5 -13 -19
-23 -75 -204 -97 -312 -2 -11 -6 -31 -9 -45 -33 -153 -39 -495 -11 -636 2 -12
7 -39 10 -60 4 -22 9 -47 12 -56 3 -9 6 -25 8 -35 2 -10 10 -38 17 -63 7 -25
13 -47 14 -50 21 -96 146 -352 237 -486 74 -110 95 -136 193 -243 222 -241
573 -450 891 -531 86 -22 94 -24 164 -35 25 -4 54 -10 65 -12 38 -10 430 -11
490 -2 108 17 120 19 140 23 11 2 40 9 65 16 25 7 54 14 64 16 91 17 352 131
463 201 29 18 54 33 57 33 3 0 14 6 23 14 10 8 54 42 98 74 139 104 160 132
144 194 -4 15 -56 98 -115 185 -59 87 -140 205 -178 262 -39 57 -81 110 -94
118 -37 25 -129 15 -152 -17 -12 -16 -150 -109 -207 -138 -58 -31 -178 -79
-215 -88 -10 -2 -27 -6 -38 -9 -92 -23 -142 -28 -265 -29 -190 0 -273 19 -439
100 -187 92 -345 247 -444 436 -33 62 -56 117 -60 138 -1 3 -8 22 -17 43 -8
20 -13 37 -10 37 2 0 1 10 -4 23 -15 40 -24 128 -25 237 0 125 6 172 39 285
100 343 384 612 730 690 130 30 344 26 470 -7 22 -6 47 -12 55 -13 8 -2 16 -4
18 -5 1 -2 7 -4 12 -5 6 -1 11 -3 13 -5 1 -1 10 -3 20 -5 10 -2 36 -13 57 -24
22 -11 40 -18 40 -16 0 3 18 -6 40 -20 22 -14 42 -25 44 -25 9 0 139 -86 180
-119 56 -45 106 -56 148 -35 26 13 68 74 303 434 95 147 97 150 97 187 0 48
-23 76 -128 156 -101 77 -315 206 -356 216 -4 1 -29 11 -55 22 -53 23 -120 48
-143 54 -8 2 -35 10 -60 19 -43 14 -102 29 -165 40 -16 3 -41 8 -55 11 -42 9
-91 15 -190 21 -52 3 -107 7 -122 9 -15 1 -28 2 -30 0z"/>
<path d="M11999 10148 c-16 -10 -35 -30 -41 -46 -8 -19 -10 -219 -8 -687 1
-363 4 -990 5 -1394 l3 -733 -74 80 c-245 266 -576 431 -944 469 -123 13 -361
6 -460 -12 -235 -43 -408 -108 -590 -221 -275 -171 -496 -426 -641 -742 -40
-86 -113 -293 -123 -348 -2 -16 -7 -40 -11 -54 -9 -42 -19 -97 -30 -180 -24
-168 -24 -437 1 -620 4 -37 25 -145 49 -256 12 -52 65 -204 100 -279 7 -16 20
-46 29 -65 63 -144 206 -349 335 -479 140 -142 358 -291 511 -350 19 -8 49
-20 65 -27 33 -14 121 -42 151 -49 202 -44 248 -50 434 -49 142 0 225 5 290
19 14 3 39 8 55 10 48 9 179 46 190 55 6 4 28 13 50 20 65 21 185 84 284 150
130 88 275 228 378 369 6 9 13 -7 18 -45 3 -21 8 -50 10 -64 5 -29 15 -96 20
-125 1 -11 6 -41 9 -65 3 -25 8 -56 11 -70 3 -14 7 -39 9 -56 5 -41 22 -71 49
-86 26 -14 572 -20 623 -6 17 4 41 20 55 34 l24 26 3 2901 c2 2114 -1 2909 -9
2929 -6 15 -23 35 -38 45 -24 16 -59 17 -395 18 -335 0 -371 -1 -397 -17z
m-889 -3182 c14 -3 41 -9 60 -13 43 -9 41 -8 65 -17 11 -4 34 -13 50 -18 60
-21 191 -91 250 -133 125 -90 258 -251 322 -393 15 -31 27 -59 28 -62 0 -3 6
-21 13 -41 48 -139 61 -370 29 -514 -56 -251 -186 -456 -384 -608 -80 -61
-251 -150 -312 -162 -9 -1 -36 -8 -60 -15 -70 -19 -130 -25 -246 -24 -119 0
-162 5 -256 29 -61 16 -189 65 -199 75 -3 3 -27 19 -55 35 -296 168 -489 516
-488 875 0 212 59 396 183 580 134 198 404 371 631 405 24 4 46 9 48 11 6 6
292 -2 321 -10z"/>
<path d="M4828 7845 c-2 -1 -39 -5 -82 -9 -517 -44 -1021 -327 -1336 -751 -70
-94 -163 -247 -198 -326 -18 -40 -64 -154 -67 -169 -1 -3 -4 -12 -8 -20 -12
-31 -45 -147 -51 -181 -3 -19 -8 -45 -11 -59 -7 -33 -13 -72 -22 -145 -14
-117 -6 -465 12 -517 2 -7 6 -29 9 -48 5 -34 10 -57 21 -100 3 -11 7 -28 9
-37 2 -10 13 -46 25 -80 12 -34 21 -69 21 -78 0 -8 4 -15 8 -15 5 0 9 -6 9
-14 0 -15 107 -234 147 -301 110 -185 346 -434 516 -545 12 -8 35 -25 49 -36
42 -34 268 -150 366 -187 106 -40 259 -83 330 -93 28 -3 52 -8 55 -9 17 -10
168 -19 315 -19 154 0 246 6 315 19 13 3 42 7 64 11 22 3 43 7 47 9 3 2 20 7
37 10 118 20 431 152 539 226 23 16 45 29 49 29 4 0 14 7 23 15 9 8 53 42 98
76 157 116 334 312 451 500 68 110 147 275 167 349 1 3 5 14 9 25 23 61 52
169 62 234 3 18 7 43 10 55 29 148 26 510 -6 650 -5 22 -11 52 -14 66 -11 56
-16 74 -41 158 -32 103 -40 123 -110 267 -51 104 -151 266 -192 310 -10 11
-30 36 -44 55 -38 50 -204 211 -274 266 -134 104 -335 222 -460 271 -108 42
-244 83 -329 99 -12 2 -32 6 -46 9 -97 19 -179 26 -332 29 -76 2 -139 2 -140
1z m252 -869 c87 -12 178 -36 240 -63 56 -24 171 -84 180 -93 3 -3 28 -22 55
-42 113 -82 230 -226 295 -363 34 -72 70 -173 77 -220 2 -16 8 -48 13 -70 9
-40 6 -288 -4 -335 -22 -105 -36 -150 -76 -235 -97 -210 -264 -381 -476 -488
-55 -28 -164 -68 -164 -61 0 3 -8 0 -17 -5 -52 -27 -259 -43 -383 -28 -226 27
-437 131 -598 296 -120 123 -235 328 -258 461 -3 14 -7 32 -10 40 -16 45 -23
254 -11 340 23 158 77 298 168 435 119 180 321 331 530 395 67 21 82 24 179
39 52 8 195 6 260 -3z"/>
<path d="M17087 7844 c-1 -1 -36 -5 -77 -8 -219 -18 -442 -81 -642 -181 -97
-48 -257 -147 -290 -178 -7 -7 -31 -25 -53 -42 -66 -49 -203 -185 -268 -265
-125 -155 -229 -336 -311 -542 -8 -21 -12 -38 -9 -38 3 0 1 -6 -5 -12 -8 -11
-24 -67 -23 -83 0 -2 -6 -23 -14 -45 -8 -22 -12 -40 -10 -40 3 0 1 -10 -4 -23
-5 -12 -11 -42 -15 -67 -3 -25 -8 -56 -11 -69 -16 -85 -22 -340 -10 -456 12
-113 24 -196 31 -206 2 -4 6 -24 10 -45 11 -72 82 -268 137 -379 56 -113 124
-227 139 -233 4 -2 8 -8 8 -14 0 -6 10 -23 23 -38 12 -15 29 -37 37 -49 19
-29 44 -57 141 -157 152 -159 314 -276 524 -379 120 -59 303 -127 377 -140 17
-3 34 -8 38 -10 4 -3 32 -7 61 -11 30 -3 57 -8 60 -10 42 -24 559 -24 599 1 3
2 23 6 45 9 22 4 58 12 80 17 22 6 47 13 55 14 8 2 16 4 18 5 1 2 5 3 10 4
209 53 580 267 707 408 35 38 37 44 32 89 -5 37 -19 67 -64 131 -31 46 -60 85
-63 88 -4 3 -51 67 -105 143 -54 76 -110 148 -124 159 -39 30 -87 19 -183 -42
-159 -103 -382 -202 -483 -217 -16 -2 -42 -8 -56 -13 -41 -13 -267 -9 -342 6
-302 63 -574 279 -712 570 -25 52 -45 97 -45 101 0 5 525 8 1168 9 642 0 1186
3 1210 7 89 14 190 76 240 149 52 76 63 132 58 307 -3 86 -7 174 -10 195 -9
64 -16 110 -21 126 -2 8 -7 27 -10 43 -13 67 -17 85 -31 132 -50 162 -142 363
-224 486 -22 33 -40 64 -40 69 0 5 -3 10 -7 12 -5 2 -30 30 -56 63 -164 204
-366 364 -602 479 -97 47 -220 95 -220 86 0 -2 -9 2 -21 8 -11 6 -32 13 -45
16 -13 3 -35 8 -49 11 -14 4 -34 8 -45 10 -11 2 -30 6 -41 9 -34 7 -92 16
-153 22 -53 6 -309 12 -314 8z m273 -878 c14 -4 38 -9 54 -11 59 -11 173 -57
238 -95 129 -77 255 -215 324 -355 39 -79 84 -206 77 -217 -5 -9 -1777 -11
-1785 -2 -8 7 36 125 69 189 94 181 247 327 431 413 31 15 59 27 62 27 3 1 30
9 61 19 63 19 84 23 149 32 25 3 46 7 48 9 5 5 246 -3 272 -9z"/>
</g>
</svg>
